<?xml version="1.0" standalone="no"?>
<!DOCTYPE svg PUBLIC "-//W3C//DTD SVG 20010904//EN"
 "http://www.w3.org/TR/2001/REC-SVG-20010904/DTD/svg10.dtd">
<svg version="1.0" xmlns="http://www.w3.org/2000/svg"
 width="512.000000pt" height="512.000000pt" viewBox="0 0 512.000000 512.000000"
 preserveAspectRatio="xMidYMid meet">

<g transform="translate(0.000000,512.000000) scale(0.100000,-0.100000)"
fill="#000000" stroke="none">
<path d="M1615 5097 c-86 -34 -148 -102 -188 -203 -28 -73 -40 -198 -27 -292
48 -360 321 -564 518 -387 223 201 148 729 -122 864 -55 27 -139 35 -181 18z"/>
<path d="M2346 4886 c-52 -19 -91 -59 -124 -126 -25 -51 -27 -64 -27 -175 0
-101 4 -129 23 -176 43 -108 138 -188 222 -189 83 0 171 80 202 183 20 67 15
232 -9 293 -60 152 -178 230 -287 190z"/>
<path d="M2917 4697 c-49 -12 -112 -83 -132 -150 -22 -75 -19 -194 6 -262 39
-105 126 -161 208 -136 109 32 177 215 137 368 -34 136 -118 205 -219 180z"/>
<path d="M3282 4419 c-123 -62 -163 -279 -71 -384 41 -46 84 -54 143 -26 127
62 169 283 73 387 -42 46 -87 53 -145 23z"/>
<path d="M3495 4087 c-73 -73 -73 -215 -1 -294 27 -30 39 -36 75 -36 65 0 104
42 121 133 15 77 -4 146 -50 193 -51 50 -97 52 -145 4z"/>
<path d="M2040 3914 c-14 -3 -59 -14 -100 -25 -189 -51 -306 -177 -342 -369
-12 -66 -4 -225 16 -295 46 -166 116 -257 378 -491 216 -194 296 -291 349
-426 74 -189 66 -426 -23 -601 -44 -88 -73 -128 -214 -294 -187 -220 -243
-309 -286 -460 -19 -66 -23 -101 -23 -228 1 -182 19 -277 75 -391 70 -143 195
-237 377 -285 111 -29 316 -36 406 -15 184 43 328 168 417 359 53 115 71 197
80 378 21 384 68 546 296 1015 234 484 278 640 279 989 0 192 -2 217 -24 295
-13 47 -41 121 -62 165 -156 331 -546 568 -1089 661 -92 15 -455 28 -510 18z"/>
</g>
</svg>
