<?xml version="1.0" standalone="no"?>
<!DOCTYPE svg PUBLIC "-//W3C//DTD SVG 20010904//EN"
 "http://www.w3.org/TR/2001/REC-SVG-20010904/DTD/svg10.dtd">
<svg version="1.0" xmlns="http://www.w3.org/2000/svg"
 width="512.000000pt" height="512.000000pt" viewBox="0 0 512.000000 512.000000"
 preserveAspectRatio="xMidYMid meet">

<g transform="translate(0.000000,512.000000) scale(0.100000,-0.100000)"
fill="#000000" stroke="none">
<path d="M3362 5095 c-164 -51 -292 -282 -292 -529 0 -299 199 -491 402 -386
170 87 281 350 248 590 -24 173 -100 287 -219 328 -43 15 -85 14 -139 -3z"/>
<path d="M2659 4887 c-78 -29 -137 -96 -175 -197 -21 -55 -24 -226 -6 -287 31
-103 119 -183 202 -183 84 1 180 82 221 189 31 80 38 229 13 307 -42 136 -152
209 -255 171z"/>
<path d="M2134 4700 c-53 -12 -91 -47 -126 -118 -29 -59 -33 -76 -33 -152 0
-102 21 -170 71 -228 90 -105 228 -64 283 83 25 68 28 187 6 262 -30 102 -120
170 -201 153z"/>
<path d="M1734 4431 c-11 -5 -32 -23 -47 -40 -89 -106 -44 -322 79 -382 59
-28 102 -20 143 26 59 68 66 188 16 291 -40 82 -129 131 -191 105z"/>
<path d="M1480 4083 c-81 -81 -72 -252 16 -310 44 -28 93 -20 130 20 72 79 72
221 -1 294 -48 48 -94 46 -145 -4z"/>
<path d="M2604 3900 c-558 -87 -964 -326 -1123 -665 -21 -44 -49 -118 -62
-165 -22 -78 -24 -103 -24 -295 1 -349 45 -505 279 -987 227 -469 275 -633
296 -1017 9 -180 27 -263 80 -376 90 -194 234 -318 417 -361 90 -21 295 -14
406 15 182 48 307 142 377 285 56 114 74 209 75 391 0 127 -4 162 -23 228 -41
143 -92 229 -241 406 -227 269 -270 337 -310 481 -26 92 -28 257 -6 355 44
189 121 302 340 499 361 325 425 424 441 676 11 165 -25 285 -113 380 -65 71
-131 111 -233 141 -108 31 -402 36 -576 9z"/>
</g>
</svg>
